<?xml version="1.0" encoding="UTF-8" standalone="no"?>
<svg width="162px" height="64px" viewBox="0 0 162 64" version="1.1" xmlns="http://www.w3.org/2000/svg" xmlns:xlink="http://www.w3.org/1999/xlink">
    <!-- Generator: Sketch 41.2 (35397) - http://www.bohemiancoding.com/sketch -->
    <title>pub_ic48_logo</title>
    <desc>Created with Sketch.</desc>
    <defs></defs>
    <g id="Page-11" stroke="none" stroke-width="1" fill="none" fill-rule="evenodd">
        <g id="切图" transform="translate(-49.000000, -141.000000)">
            <g id="Group-27" transform="translate(49.000000, 147.000000)">
                <g id="Group-26" transform="translate(62.937500, 14.000000)" fill="#000000">
                    <path d="M93.1616946,18.719749 C93.1616946,15.674166 93.146148,6.61981399 93.146148,6.61981399 L96.3495292,6.61981399 L96.3495292,18.719749 C96.3495292,21.0198715 94.1737796,23.8773404 91.1554032,23.8773404 L74.9853629,23.8773404 L74.9853629,6.61981399 L78.1871894,6.61981399 L78.1871894,20.8123241 C78.1871894,20.8123241 87.5291539,20.8154335 91.1631765,20.8154335 C92.3493837,20.8154335 93.1616946,19.6805301 93.1616946,18.719749" id="Fill-10"></path>
                    <path d="M87.0611229,16.2769862 L88.8373243,16.2769862 L88.8373243,13.8999079 L87.0611229,13.8999079 L87.0611229,16.2769862 Z M87.0611229,11.7459235 L88.8373243,11.7459235 L88.8373243,9.44346899 L87.0611229,9.44346899 L87.0611229,11.7459235 Z M82.4087966,11.7459235 L84.2106499,11.7459235 L84.2106499,9.44346899 L82.4087966,9.44346899 L82.4087966,11.7459235 Z M82.4087966,16.2769862 L84.2106499,16.2769862 L84.2106499,13.8999079 L82.4087966,13.8999079 L82.4087966,16.2769862 Z M79.5559917,7.11613986 L79.5559917,19.1943096 L88.8373243,19.1943096 C90.9096888,19.1943096 91.6893519,19.1088032 91.6893519,16.4052458 L91.6893519,9.44346899 L92.3897271,9.44346899 L92.3897271,7.858491 C91.4382739,6.71970103 90.2124229,6.00144714 89.8377493,5.75425587 L88.9127254,7.11613986 L79.5559917,7.11613986 Z" id="Fill-12"></path>
                    <path d="M97.2176525,4.68985648 L97.2176525,2.88256181 C96.2164501,1.91711665 95.1919278,1.27270922 94.0407005,0.728577492 L92.989749,2.2638063 L74.103714,2.2638063 L74.103714,4.68985648 L97.2176525,4.68985648 Z" id="Fill-14"></path>
                    <path d="M52.3647186,13.379407 C51.4894439,16.2026733 50.5636426,18.7523191 48.7874412,21.6245573 L51.7894937,23.6044195 C53.3651437,20.0395793 54.1657947,16.6239868 54.6415213,14.5928207 L52.3647186,13.379407 Z" id="Fill-15"></path>
                    <path d="M54.3626926,9.711415 C52.9355128,8.72264992 52.6906535,8.5018879 50.1884249,7.43772171 L48.8871728,9.51785957 C50.9882986,10.9784646 51.2137246,11.1518094 52.9401768,12.637289 L54.3626926,9.711415 Z" id="Fill-16"></path>
                    <path d="M53.5405873,6.8191994 L55.7412115,3.79849097 C53.8414144,2.68379826 53.190011,2.36353787 51.1891609,1.42218998 L49.7627584,3.35230295 C51.388935,4.63956316 52.1141848,5.30884519 53.5405873,6.8191994" id="Fill-17"></path>
                    <path d="M62.9717894,19.2481009 C61.9954616,18.8757593 61.4451112,18.628568 60.2200375,17.9351888 L65.1980655,17.9351888 C64.772088,18.2321292 63.9963117,18.7521637 62.9717894,19.2481009 L62.9717894,19.2481009 Z M66.6983144,13.3792515 L68.4745158,13.3792515 L68.4745158,11.7204271 L66.6983144,11.7204271 L66.6983144,13.3792515 Z M62.3452605,13.3792515 L64.0965874,13.3792515 L64.0965874,11.7204271 L62.3452605,11.7204271 L62.3452605,13.3792515 Z M58.0178586,13.3792515 L59.7691855,13.3792515 L59.7691855,11.7204271 L58.0178586,11.7204271 L58.0178586,13.3792515 Z M66.8988658,20.3371417 C67.9241654,19.7176088 68.5996661,19.1983517 69.6754923,18.306753 L71.1011174,18.306753 L71.1011174,16.944869 C70.8259422,16.6479285 70.4015194,16.1784206 69.550342,15.6078596 L71.3008915,15.6078596 L71.3008915,11.7204271 L72.1256397,11.7204271 L72.1256397,10.5077907 C71.3008915,9.71569032 70.7264438,9.31925149 69.9001409,8.8987154 C69.9001409,8.8987154 68.3890094,9.98775619 68.3742401,9.98775619 L55.1666084,9.98775619 L55.1666084,15.6078596 L67.5518239,15.6078596 L67.1242918,16.1037968 L55.7923599,16.1037968 L55.7923599,17.9351888 C56.4919578,18.4808751 58.7431085,19.8163299 59.8694612,20.4615146 C57.3928845,21.1782139 55.1417338,21.4518344 53.4401561,21.6492765 L54.2905563,23.8537873 C56.6676346,23.5560695 59.7443109,23.1106588 63.2461872,21.9710915 C65.7732904,22.8619129 68.6991645,23.4316965 71.3506406,23.7535116 L72.5267425,20.9558972 C69.2751668,20.7576778 67.3979123,20.4117654 66.8988658,20.3371417 L66.8988658,20.3371417 Z" id="Fill-18"></path>
                    <path d="M59.6188496,7.28901828 L59.6188496,6.32435046 L66.7982791,6.32435046 C66.7982791,7.28435429 65.6493839,7.28901828 65.6493839,7.28901828 L59.6188496,7.28901828 Z M59.6188496,4.83809351 L66.7982791,4.83809351 L66.7982791,3.89752295 L59.6188496,3.89752295 L59.6188496,4.83809351 Z M67.8243561,0.777316148 L66.6785702,2.23869851 L56.5421734,2.23869851 L56.5421734,9.36993348 L67.1309768,9.36993348 C68.5573793,9.36993348 69.9006073,8.84134837 69.9006073,7.27580365 L69.9006073,3.89752295 L70.7510075,3.89752295 L70.7510075,2.68333186 C69.8500808,1.81660775 69.0253326,1.29735061 67.8243561,0.777316148 L67.8243561,0.777316148 Z" id="Fill-19"></path>
                    <path d="M18.9243259,13.0332615 C17.8244025,11.9185688 17.3222466,11.49881 16.2223232,10.5325875 C16.4477492,9.17070353 16.6731752,7.21493863 16.7229244,4.78811112 L18.9243259,4.78811112 L18.9243259,13.0332615 Z M7.14231932,8.52785076 C6.11546502,7.80881955 5.86594175,7.66034932 5.59076656,7.46290723 L4.31516633,8.97326145 L4.31516633,6.47880614 C4.31516633,6.47880614 4.48306983,4.78811112 6.24216998,4.78811112 L7.36696799,4.78811112 C7.3420934,5.48226774 7.31644148,6.86824899 7.14231932,8.52785076 L7.14231932,8.52785076 Z M4.31516633,17.5394495 L4.31516633,9.41944946 C5.21531567,10.2356471 6.04161857,11.1023712 6.64171813,11.7203493 C6.21574072,13.6271424 5.59076656,15.5829073 4.31516633,17.5394495 L4.31516633,17.5394495 Z M20.0242493,0.679139238 L18.6988999,2.18949345 L6.03695458,2.18949345 C2.28944163,2.18949345 0.83816458,3.36559532 0.83816458,7.23825856 L0.83816458,23.8778068 L4.31516633,23.8778068 L4.31516633,18.7520859 L5.56589197,19.8170295 C7.41671718,17.6381706 8.19249356,16.0780672 8.89286883,14.3951455 C9.39347002,15.0636502 9.54427224,15.2859668 9.76892091,15.6085592 L11.995197,12.7604183 C11.0196466,11.7700985 10.3192713,11.1272458 9.9189458,10.7556815 C10.2189956,8.84888848 10.3938951,7.23981322 10.4436443,4.78811112 L13.5957216,4.78811112 C13.5700697,6.00152488 13.4705713,7.7349731 13.3959475,8.30475675 C12.8455972,7.90754059 12.5206728,7.68522391 12.1452219,7.41315805 L10.7188194,9.22123005 C11.8195202,10.2099951 12.0946954,10.5077129 12.9707475,11.3993116 C12.1452219,15.3605906 10.3690205,17.8861392 9.09264291,19.4454652 L11.0693957,20.980694 C13.6454708,18.2818007 14.7959208,15.6824057 15.3462711,14.0725531 C15.4216722,14.1720514 16.2223232,15.1623712 16.9475731,16.2770639 L18.9243259,13.5284213 L18.9243259,18.9503054 C18.9243259,19.9903743 18.8994513,20.4614369 17.7225721,20.4614369 C16.973225,20.4614369 16.1476994,20.435785 15.397575,20.3868131 L16.1974486,23.8778068 C21.6255513,23.9019041 22.4013277,23.3328978 22.4013277,20.212691 L22.4013277,4.78811112 L23.2268532,4.78811112 L23.2268532,3.00646837 C22.3259265,2.04024589 21.4009026,1.39661579 20.0242493,0.679139238 L20.0242493,0.679139238 Z" id="Fill-20"></path>
                    <path d="M31.2082552,9.09421416 L31.2082552,7.70823291 L38.6861798,7.70823291 L41.6649123,7.70823291 C41.6649123,9.09810081 39.9190268,9.09421416 39.9190268,9.09421416 L31.2082552,9.09421416 Z M31.2082552,4.48852774 L41.6649123,4.48852774 L41.6649123,5.75091335 L38.6861798,5.75091335 L31.2082552,5.75091335 L31.2082552,4.48852774 Z M40.3613282,11.7946622 C42.7306332,11.7946622 44.9911118,10.2625427 44.9911118,8.38684291 L44.9911118,4.48852774 L45.7668882,4.48852774 L45.7668882,2.92920167 C44.5410372,1.91478466 43.9665895,1.54322042 42.66456,0.899590321 L41.4635836,2.23659971 L31.6824271,2.23659971 L27.6519656,2.23659971 L27.6511883,11.7938849 L30.482228,11.7938849 C29.3566526,12.9816467 28.0810524,14.0971167 24.8543512,15.804913 L26.4307786,17.95812 C27.4312036,17.4629601 29.1825305,16.5472642 31.0582303,15.1846029 L32.8834036,15.1846029 C32.0089061,16.2246718 29.9824041,18.5271263 24.928975,21.0775495 L26.4556532,23.3061576 C28.8070796,22.1665903 34.0346308,19.4925715 37.136959,15.1846029 L38.938035,15.1846029 C36.8112573,18.7502203 33.7097064,20.8552328 31.9591569,21.9940228 L33.7843302,23.826192 C38.1622587,21.2508943 40.6637099,18.8986906 42.8651114,15.1846029 L43.5157375,15.1846029 C43.3151861,20.1867281 43.2405623,20.7059852 41.0383835,20.7059852 C40.7888602,20.7059852 40.1390115,20.7059852 39.0375334,20.6321388 L39.7884352,23.8751639 C46.2674894,23.7515683 46.642163,22.9835652 46.9670874,15.1846029 L47.7179891,15.1846029 L47.7179891,13.4270574 C46.6926895,12.5611106 46.1672137,12.188769 44.9911118,11.5451389 L43.3913646,12.7336781 L33.8348567,12.7336781 C34.3603325,12.1638944 34.2662755,12.2905994 34.640949,11.7954395 C34.640949,11.7954395 38.6154426,11.7946622 40.3613282,11.7946622 L40.3613282,11.7946622 Z" id="Fill-21"></path>
                </g>
                <g id="Group-3">
                    <g id="Group-2">
                        <g id="Group-39">
                            <path d="M26.534087,52.8979592 C22.9609182,52.8979592 19.487004,52.2010601 16.2115993,50.8072619 C13.0685341,49.4798351 10.223233,47.5550662 7.77495068,45.1325122 C5.32666834,42.7099583 3.44082924,39.8559906 2.08434848,36.7365375 C0.694782827,33.4843418 0,29.9998464 0,26.4489796 C0,22.8649272 0.694782827,19.4136174 2.08434848,16.1614217 C3.40774434,13.0087829 5.32666834,10.1880009 7.77495068,7.76544696 C10.223233,5.34289299 13.0354492,3.41812409 16.2115993,2.09069726 C19.487004,0.696899086 22.9609182,0 26.534087,0 C30.1072558,0 33.58117,0.696899086 36.8565747,2.09069726 C39.9996399,3.41812409 42.844941,5.34289299 45.2932233,7.76544696 C47.7415057,10.1880009 49.6273448,13.0419686 50.9838255,16.1614217 C52.3733912,19.4136174 53.068174,22.8981128 53.068174,26.4489796 C53.068174,31.3604589 51.7116932,36.1391955 49.1641562,40.2874043 C48.3370338,41.6148311 48.8333072,43.7055284 49.3626656,45.8957827 C49.5942599,46.7917958 49.7927692,47.7209945 49.8920239,48.484265 C49.9912786,49.2807211 49.8920239,49.5793921 49.858939,49.6457634 C49.7927692,49.6789491 49.6273448,49.7453205 49.230326,49.7453205 C48.3701187,49.7453205 47.1459775,49.4798351 45.9549212,49.2143497 C44.6646103,48.9488644 43.3081295,48.6501933 42.183243,48.6501933 C41.3892055,48.6501933 40.7605925,48.782936 40.2974039,49.081607 C36.1617919,51.603718 31.3975668,52.8979592 26.534087,52.8979592 L26.534087,52.8979592 Z" id="Combined-Shape-Copy-2" fill="#CF253C"></path>
                            <path d="M41.2852104,39.9394342 C41.153167,39.9394342 35.4092809,39.6414317 32.3722836,38.64809 C33.5606738,37.8203053 34.6170207,36.9925206 35.7724001,35.833622 C38.7433757,32.853597 37.9181047,30.1384632 33.0325004,30.0060176 C31.1508825,29.9729062 26.7934516,30.0060176 23.426346,31.2642504 C21.973869,31.827144 19.6631102,33.3502679 21.1816089,35.6349537 C21.7427931,36.3965156 22.7001075,37.3898573 24.2846278,38.5818673 C22.5680641,39.3103178 19.7621427,39.3765406 16.6591238,39.5089861 C15.7018094,39.4758747 14.8435276,40.4692164 14.8105168,41.3963353 C14.7775059,42.2572314 15.4707336,43.0187933 16.2960045,43.1843503 L16.2960045,43.1843503 C16.3950371,43.2174617 21.9408582,43.7472439 28.1138852,41.0983328 C28.6420587,41.4294467 34.1218581,44.8068083 41.1201562,45.4028133 C42.6386548,45.5352589 43.9260776,44.2770261 43.9590884,42.7539022 C44.0251101,41.2638897 42.8367198,40.005657 41.2852104,39.9394342 L41.2852104,39.9394342 Z M27.9158202,36.7938523 C26.6944191,36.1647359 25.9681806,35.7673992 25.2089313,35.237617 C23.3933351,34.0124956 26.6614083,33.2509337 27.4866793,33.1184881 C33.4946521,32.0258123 30.4576549,35.4362853 27.9158202,36.7938523 L27.9158202,36.7938523 Z M21.0495655,16.5959052 C21.0495655,16.5959052 21.2806414,16.4965711 21.6437606,16.3310141 C22.1719341,17.3243558 22.8981725,18.1521405 23.7564544,18.6488113 C25.4069964,19.5759302 27.3216251,19.6752644 29.5333514,19.0130366 C33.5606738,17.7548038 36.3335844,15.1721155 36.5976711,11.9271994 C36.9607903,11.8609767 37.1918662,11.7947539 37.1918662,11.7947539 C37.9511155,11.5629742 38.3802565,10.8014122 38.1821914,10.0398503 C37.9511155,9.27828834 37.1588554,8.84784029 36.3996061,9.07962001 C36.3996061,9.07962001 36.3335844,9.07962001 36.2675627,9.1127314 C35.37627,6.36448614 33.0325004,5.63603559 30.1935682,5.9009267 C31.7120668,4.01357755 29.0381888,4.54335977 28.576037,4.60958255 C24.0535519,5.27181032 20.5544029,9.74184778 20.8184896,13.3841005 C20.8184896,13.4503233 20.8184896,13.5165461 20.8515005,13.5827689 C20.4883812,13.7483258 20.2903162,13.84766 20.2903162,13.84766 C19.5310669,14.0794397 19.1019259,14.8410016 19.299991,15.6025636 C19.498056,16.3972369 20.2903162,16.8276849 21.0495655,16.5959052 L21.0495655,16.5959052 Z M29.3352863,16.1323458 C27.9818419,16.5627938 26.3312999,16.8607963 25.2089313,16.1985686 C24.8128012,15.9667888 24.5157037,15.635675 24.2846278,15.2383383 C25.4069964,14.7747788 26.5953866,14.3443308 27.4866793,14.0794397 C28.6090478,13.7483258 31.05185,13.1854322 33.1645437,12.7218728 C32.8344353,14.278108 31.3819584,15.470118 29.3352863,16.1323458 L29.3352863,16.1323458 Z M26.0011915,9.24517695 C25.2419422,10.9338578 26.3643107,10.4702983 26.3643107,10.4702983 C26.9585058,10.2385186 31.05185,7.85449863 32.6363703,9.84118195 C30.9198066,10.2054072 28.8401237,10.7020781 27.0245275,11.2318603 C25.7701156,11.5960855 24.6147362,11.9934222 23.6574219,12.3576475 C23.9215086,11.1987489 24.7797904,10.0398503 26.0011915,9.24517695 L26.0011915,9.24517695 Z M19.2339693,30.3371315 C19.9602078,30.3702429 20.6534354,29.8073493 20.8184896,29.0788987 C20.8184896,29.0788987 21.1155872,26.7279901 21.3136522,25.7015371 C22.0398907,25.436646 23.1622593,25.1055321 24.4826928,24.7413068 C24.3176386,25.9995396 24.2186061,28.0524457 24.2186061,28.0524457 L24.2186061,28.0524457 L24.2186061,28.0855571 C24.2186061,29.0126759 24.9118338,29.7411265 25.8031264,29.7411265 C26.6944191,29.7411265 27.3216251,29.0457873 27.3546359,28.1848912 C27.3546359,27.9862229 27.4206576,25.436646 27.552701,23.8804107 C28.6420587,23.5824082 29.7644272,23.2844057 30.7547524,23.052626 C30.6227091,24.4101929 30.6227091,27.820666 30.6227091,27.820666 C30.6557199,28.7146735 31.3819584,29.443124 32.2732511,29.4100126 C32.9334679,29.3769012 33.725728,28.847119 33.7587389,27.9200001 C33.7587389,27.9200001 33.7917497,23.3506285 33.8247605,22.2910641 C34.5179882,22.1255071 34.9471291,21.9930616 34.9471291,21.9930616 C36.201541,21.7612818 36.8947687,22.6221779 36.9607903,23.4830741 C37.026812,24.8737524 36.6636928,25.867094 36.4656277,26.7611015 C36.4326169,26.9266585 36.3996061,27.0922154 36.3996061,27.2908837 C36.3996061,28.5160051 37.3899313,29.4762354 38.6113323,29.4762354 C39.4696142,29.4762354 40.2288635,28.9795646 40.5919827,28.251114 C41.7473621,26.2313193 42.7046765,22.3572868 41.5162862,19.5428188 C41.1861778,18.7812569 40.4269285,18.3176974 39.6016575,18.0196949 C36.6636928,16.9932419 24.9778554,21.2977224 22.3039774,22.2910641 C22.4360208,21.5957249 21.9408582,20.834163 21.2476305,20.5692719 C20.6534354,20.3374921 20.0592403,20.6023832 19.7951536,20.834163 C18.8048284,21.3639452 17.5504165,27.3902179 17.7484815,28.9133418 C17.847514,30.039129 18.7718175,30.3040201 19.2339693,30.3371315 L19.2339693,30.3371315 Z M13.9522349,29.2113443 C13.0279314,29.2113443 12.2356712,29.7742379 11.9055628,30.6020226 L11.9055628,30.6020226 C11.9055628,30.6020226 10.0569558,35.5025081 9.16566313,36.5289612 L9.16566313,36.5289612 C8.73652221,37.025632 8.50544633,37.6547484 8.50544633,38.3500875 C8.50544633,39.9063228 9.75985824,41.1645556 11.3443786,41.1645556 C12.6648122,41.1645556 13.7541699,40.2705481 14.0842783,39.0454267 C14.54643,37.7540825 16.2299829,32.8204856 16.196972,31.3966959 C16.1639612,30.1715745 15.173636,29.2113443 13.9522349,29.2113443 L13.9522349,29.2113443 Z M11.047281,17.258133 C11.6414761,17.9865835 13.2259964,18.7481455 13.2259964,18.7481455 C13.4900832,18.8474796 13.7871807,18.9137024 14.0842783,18.9137024 C15.3056794,18.9137024 16.2960045,17.9203608 16.2960045,16.7283508 C16.2960045,16.6290166 16.1639612,15.470118 15.9328853,14.7085561 C15.6357877,13.4834347 14.5134192,12.5894272 13.1929856,12.5894272 C11.6414761,12.5894272 10.3540534,13.84766 10.3540534,15.4038952 C10.3540534,16.1323458 10.6181401,16.7614622 11.047281,17.258133 L11.047281,17.258133 L11.047281,17.258133 Z M11.7405086,25.1055321 C12.070617,25.3042004 12.7638447,25.7015371 13.325029,26.1319851 C13.325029,26.1319851 13.325029,26.1319851 13.3580398,26.1650965 C13.3580398,26.1650965 13.3910506,26.1650965 13.3910506,26.1982079 C13.4240615,26.2313193 13.4900832,26.2644307 13.523094,26.2975421 L13.523094,26.2975421 C14.3153542,26.8273243 15.371701,26.6948787 15.998907,25.9333168 C16.5270804,25.3042004 16.5600913,24.4433043 16.1639612,23.7810765 C15.7348203,22.9201804 14.4473975,21.5957249 13.6551374,21.2314996 C13.2590073,20.9997199 12.7968555,20.8672744 12.3016929,20.9003857 C11.0802918,20.9997199 10.1889992,22.0592843 10.3210425,23.2512943 C10.420075,24.1121904 10.9812593,24.840641 11.7405086,25.1055321 L11.7405086,25.1055321 Z" id="Shape-Copy-2" fill="#FFFFFF"></path>
                        </g>
                    </g>
                </g>
            </g>
        </g>
    </g>
</svg>